<svg width="34" height="34" viewBox="0 0 34 34" fill="none" xmlns="http://www.w3.org/2000/svg">
<path d="M7.09246 28.6532H24.6088L23.7722 25.9445L25.7733 27.6618L27.6074 29.3055L30.9487 32.0977V5.65562C30.8652 4.01197 29.45 2.61523 27.6958 2.61523L7.09861 2.61892C5.34563 2.61892 3.9231 4.01811 3.9231 5.66176V25.6116C3.9231 27.3449 5.34317 28.6532 7.09246 28.6532ZM20.05 9.59645L20.0095 9.61119L20.0242 9.59645H20.05ZM10.6758 11.1553C12.9275 9.5166 15.0147 9.59522 15.0147 9.59522L15.183 9.76106C12.4276 10.4183 11.1782 11.6492 11.1782 11.6492C11.1782 11.6492 11.5124 11.4858 12.0959 11.2364C15.807 9.77703 19.8596 9.88267 23.6113 11.7302C23.6113 11.7302 22.3595 10.5792 19.7736 9.84213L20.0021 9.61733C20.3596 9.61856 22.2514 9.68489 24.2759 11.1652C24.2759 11.1652 26.5411 15.0347 26.5411 19.7888C26.4662 19.6979 25.1358 21.8354 21.7121 21.9091C21.7121 21.9091 21.1323 21.2531 20.7195 20.6806C22.7219 20.1057 23.4712 18.9559 23.4712 18.9559C22.814 19.3699 22.2145 19.6156 21.7281 19.8613C20.98 20.1905 20.2306 20.3526 19.4825 20.5185C15.9397 21.0934 13.9508 20.1315 12.0713 19.3687L11.4288 19.0419C11.4288 19.0419 12.177 20.1917 14.0995 20.7666C13.5946 21.3428 13.0946 21.9975 13.0946 21.9975C9.67218 21.9164 8.42409 19.779 8.42409 19.779C8.42409 15.0175 10.6758 11.1553 10.6758 11.1553Z" fill="white"/>
<path d="M20.2711 18.3036C21.1445 18.3036 21.8558 17.5666 21.8558 16.6575C21.8558 15.7546 21.1482 15.0176 20.2711 15.0176V15.0213C19.4014 15.0213 18.6889 15.7559 18.6864 16.6649C18.6864 17.5666 19.3977 18.3036 20.2711 18.3036Z" fill="white"/>
<path d="M14.5982 18.3036C15.4716 18.3036 16.1829 17.5666 16.1829 16.6575C16.1829 15.7546 15.4765 15.0176 14.6031 15.0176L14.5982 15.0213C13.7248 15.0213 13.0135 15.7559 13.0135 16.6649C13.0135 17.5666 13.7248 18.3036 14.5982 18.3036Z" fill="white"/>
</svg>
