<svg width="61" height="67" viewBox="0 0 61 67" fill="none" xmlns="http://www.w3.org/2000/svg">
<path d="M26.5023 33.7746L5.10818 22.1476C4.15654 21.6307 3.03278 21.6521 2.10156 22.2056C1.17035 22.7591 0.614685 23.7362 0.614685 24.8196V51.7915C0.614685 52.8828 1.20399 53.8958 2.15275 54.4353L23.5472 66.598C24.0189 66.8661 24.5346 67 25.0505 67C25.5762 67 26.1017 66.8608 26.5796 66.5827C27.5262 66.032 28.0912 65.0493 28.0912 63.9541V36.4466C28.0912 35.3312 27.4826 34.3074 26.5023 33.7746Z" fill="url(#paint0_linear_220_173)"/>
<path d="M56.5153 15.1319C56.5139 13.9931 55.8848 12.9602 54.8738 12.4362L31.5443 0.341284C30.661 -0.116862 29.6081 -0.113458 28.7281 0.349792L5.74164 12.4447C4.74079 12.9716 4.11823 14.0014 4.11679 15.1324C4.11548 16.2633 4.73555 17.2945 5.73496 17.8236L28.7216 29.994C29.1666 30.2295 29.6553 30.3473 30.1442 30.3473C30.6271 30.3473 31.1101 30.2324 31.5507 30.0024L54.8808 17.8322C55.8905 17.3055 56.5169 16.2707 56.5153 15.1319Z" fill="url(#paint1_linear_220_173)"/>
<path d="M58.9105 22.2056C57.9798 21.652 56.8555 21.6302 55.9043 22.1475L34.5095 33.7746C33.5295 34.3073 32.9208 35.3311 32.9208 36.4465V63.9539C32.9208 65.0492 33.4859 66.0318 34.4324 66.5825C34.9103 66.8607 35.4358 66.9997 35.9616 66.9997C36.4773 66.9997 36.9933 66.8658 37.4648 66.5978L58.8595 54.4351C59.8082 53.8957 60.3974 52.8827 60.3974 51.7914V24.8195C60.3974 23.7362 59.8417 22.7591 58.9105 22.2056Z" fill="url(#paint2_linear_220_173)"/>
<defs>
<linearGradient id="paint0_linear_220_173" x1="14.353" y1="21.7747" x2="14.353" y2="67" gradientUnits="userSpaceOnUse">
<stop stop-color="#FFB800"/>
<stop offset="1" stop-color="#C68F00"/>
</linearGradient>
<linearGradient id="paint1_linear_220_173" x1="30.316" y1="0" x2="30.316" y2="30.3473" gradientUnits="userSpaceOnUse">
<stop stop-color="#FFB800"/>
<stop offset="1" stop-color="#C68F00"/>
</linearGradient>
<linearGradient id="paint2_linear_220_173" x1="46.6591" y1="21.7744" x2="46.6591" y2="66.9997" gradientUnits="userSpaceOnUse">
<stop stop-color="#FFB800"/>
<stop offset="1" stop-color="#C68F00"/>
</linearGradient>
</defs>
</svg>
