<svg width="59" height="39" viewBox="0 0 59 39" fill="none" xmlns="http://www.w3.org/2000/svg">
<path d="M15.8502 10.144V13.1283C16.8709 13.1049 17.8706 13.0474 18.8368 12.9574C18.8368 12.9443 18.8349 12.9319 18.8349 12.9189V9.98071C17.8651 10.0668 16.8667 10.1215 15.8502 10.144Z" fill="url(#paint0_linear_220_210)"/>
<path d="M28.9917 9.02149V7.19116C28.2596 7.67534 27.2866 8.14722 26.0071 8.58128V11.434C28.1041 10.6186 28.9242 9.74593 28.9873 9.18062C28.9846 9.12754 28.9861 9.07434 28.9917 9.02149Z" fill="url(#paint1_linear_220_210)"/>
<path d="M10.7716 9.98071V12.9189C10.7716 12.932 10.7701 12.9451 10.7696 12.9574C11.736 13.0474 12.7353 13.1049 13.7564 13.1283V10.144C12.7398 10.1216 11.7415 10.0668 10.7716 9.98071Z" fill="url(#paint2_linear_220_210)"/>
<path d="M8.67776 9.74036C7.62983 9.59131 6.63033 9.40313 5.69312 9.17871V12.0998C6.67667 12.3535 7.67294 12.5552 8.67776 12.7039V9.74036Z" fill="url(#paint3_linear_220_210)"/>
<path d="M21.0176 24.1087C20.6407 24.1174 20.2621 24.1218 19.8816 24.1218C15.7026 24.1218 11.7591 23.5745 8.77756 22.5807C4.72589 21.2302 3.70545 19.4971 3.60862 18.21C1.55203 19.0121 0.614685 19.9164 0.614685 20.5362C0.614685 21.1586 1.59613 22.2124 4.36119 23.1342C7.13541 24.0587 10.8432 24.5679 14.8038 24.5679C16.8837 24.5714 18.9608 24.4179 21.0176 24.1087Z" fill="url(#paint4_linear_220_210)"/>
<path d="M4.36119 6.62946C7.13541 7.55398 10.8432 8.06316 14.8038 8.06316C18.7644 8.06316 22.4721 7.55398 25.2463 6.62946C28.0117 5.70769 28.9928 4.65349 28.9928 4.03151C28.9928 3.40954 28.0114 2.3556 25.2463 1.43369C22.4721 0.509043 18.7644 0 14.8038 0C10.8432 0 7.13541 0.509043 4.36119 1.43369C1.59613 2.3556 0.614685 3.40915 0.614685 4.03151C0.614685 4.65388 1.59613 5.70769 4.36119 6.62946Z" fill="url(#paint5_linear_220_210)"/>
<path d="M3.59946 11.4335V8.58076C2.31978 8.14722 1.3475 7.67495 0.614685 7.19116V9.10995C0.614685 9.67134 1.41293 10.5837 3.59946 11.4335Z" fill="url(#paint6_linear_220_210)"/>
<path d="M0.614685 25.6151C0.614685 26.1765 1.41293 27.0887 3.59946 27.9386V25.0859C2.31978 24.6524 1.3475 24.1801 0.614685 23.6963V25.6151Z" fill="url(#paint7_linear_220_210)"/>
<path d="M28.9807 18.0698C28.0465 18.2933 27.0514 18.4811 26.0071 18.6295V21.5897C26.7042 21.4843 27.3792 21.3612 28.0244 21.2195C28.2351 20.1398 28.5555 19.0844 28.9807 18.0698Z" fill="url(#paint8_linear_220_210)"/>
<path d="M26.0071 27.9382C26.6849 27.6884 27.3313 27.3607 27.9333 26.9616C27.796 26.1147 27.7257 25.2583 27.7229 24.4004C27.1647 24.6631 26.5918 24.8935 26.0071 25.0903V27.9382Z" fill="url(#paint9_linear_220_210)"/>
<path d="M14.8034 15.2353C12.2792 15.246 9.7592 15.0303 7.27361 14.5906C7.96493 14.9667 8.69018 15.2768 9.43972 15.5168C12.2139 16.4413 15.9218 16.9505 19.8823 16.9505C23.8056 16.9505 27.594 16.4271 30.334 15.5111C31.2024 14.1726 32.2613 12.9679 33.4774 11.9351C32.9042 11.4163 31.9584 10.9091 30.7444 10.4683C30.1902 11.5341 28.8459 12.7147 25.9078 13.6941C22.9263 14.6881 18.9824 15.2353 14.8034 15.2353Z" fill="url(#paint10_linear_220_210)"/>
<path d="M20.9286 19.0314V22.0165C21.9456 21.993 22.9451 21.9346 23.9153 21.8438C23.9153 21.8307 23.9133 21.8188 23.9133 21.8061V18.8694C22.9447 18.9551 21.9463 19.009 20.9286 19.0314Z" fill="url(#paint11_linear_220_210)"/>
<path d="M13.7562 21.5912V18.6278C12.7082 18.4788 11.7088 18.2906 10.7715 18.0662V20.9871C11.7551 21.2408 12.7514 21.4425 13.7562 21.5912Z" fill="url(#paint12_linear_220_210)"/>
<path d="M5.69312 17.9977C5.69312 18.5591 6.49201 19.4714 8.67776 20.3212V17.4685C7.39808 17.0344 6.42527 16.5623 5.69312 16.0784V17.9977Z" fill="url(#paint13_linear_220_210)"/>
<path d="M15.8481 21.845C16.8143 21.935 17.8137 21.9924 18.8347 22.0159V19.0315C17.8181 19.0091 16.8194 18.9543 15.85 18.8682V21.8057C15.85 21.8188 15.8486 21.8319 15.8481 21.845Z" fill="url(#paint14_linear_220_210)"/>
<path d="M20.9286 9.74023V12.7037C21.9334 12.5549 22.9297 12.3533 23.9133 12.0995V9.17871C22.9761 9.40313 21.9766 9.59131 20.9286 9.74023Z" fill="url(#paint15_linear_220_210)"/>
<path d="M14.8034 31.7402C12.2792 31.7509 9.7592 31.5352 7.27361 31.0955C7.96493 31.4716 8.69018 31.7817 9.43972 32.0217C12.2139 32.9462 15.9218 33.4554 19.8823 33.4554C23.5594 33.4554 27.068 33.0038 29.7479 32.2022C29.2039 31.2193 28.7636 30.1824 28.4341 29.1084C25.5361 30.7341 20.4531 31.7402 14.8034 31.7402Z" fill="url(#paint16_linear_220_210)"/>
<path d="M26.0071 38.0997C27.012 37.9507 28.0083 37.7484 28.9917 37.4936V34.5701C28.0567 34.7925 27.0559 34.9806 26.0071 35.13V38.0997Z" fill="url(#paint17_linear_220_210)"/>
<path d="M23.9133 35.3713C22.9416 35.4584 21.9425 35.5141 20.9286 35.537V38.5213C21.9781 38.4978 22.9748 38.4397 23.9154 38.3526C23.9154 38.3387 23.9133 38.3252 23.9133 38.3112V35.3713Z" fill="url(#paint18_linear_220_210)"/>
<path d="M31.0857 36.8224C31.6434 36.6101 32.1823 36.3512 32.6966 36.0484C32.1159 35.4871 31.5775 34.8837 31.0857 34.2432V36.8224Z" fill="url(#paint19_linear_220_210)"/>
<path d="M44.0041 15.2354C42.2023 15.2353 40.4409 15.7696 38.9428 16.7706C37.4446 17.7717 36.2769 19.1945 35.5873 20.8591C34.8978 22.5238 34.7174 24.3555 35.0689 26.1228C35.4204 27.89 36.288 29.5132 37.5621 30.7873C38.8362 32.0614 40.4594 32.9291 42.2267 33.2806C43.9939 33.6322 45.8256 33.4518 47.4903 32.7622C49.155 32.0727 50.5778 30.905 51.5788 29.4069C52.5799 27.9087 53.1142 26.1473 53.1142 24.3455C53.1113 21.9302 52.1506 19.6147 50.4428 17.9068C48.7349 16.199 46.4194 15.2382 44.0041 15.2354ZM49.1771 26.7102C49.1772 26.8939 49.1288 27.0745 49.0369 27.2337C48.945 27.3928 48.8129 27.525 48.6537 27.6169L44.6312 29.9391C44.4721 30.031 44.2915 30.0794 44.1078 30.0794C43.924 30.0794 43.7435 30.031 43.5843 29.9391L39.562 27.6167C39.4028 27.5249 39.2707 27.3927 39.1788 27.2336C39.0869 27.0744 39.0385 26.8939 39.0385 26.7102V22.0656C39.0385 21.8818 39.0869 21.7013 39.1788 21.5421C39.2707 21.383 39.4028 21.2508 39.562 21.159L43.5843 18.8366C43.7435 18.7447 43.924 18.6963 44.1078 18.6963C44.2915 18.6963 44.4721 18.7447 44.6312 18.8366L48.6537 21.159C48.8129 21.2509 48.945 21.383 49.0369 21.5422C49.1288 21.7014 49.1772 21.8819 49.1771 22.0657V26.7102Z" fill="url(#paint20_linear_220_210)"/>
<path d="M44.004 10.1569C41.4573 10.1559 38.9574 10.8406 36.7666 12.1392C34.5759 13.4377 32.7752 15.3022 31.5536 17.5368C30.3321 19.7714 29.7348 22.2937 29.8244 24.8388C29.914 27.3839 30.6873 29.858 32.063 32.0011C32.1806 32.1098 32.2716 32.2441 32.3288 32.3937C32.3297 32.396 32.3302 32.3984 32.3311 32.4006C33.7182 34.4103 35.6005 36.028 37.796 37.097C39.9914 38.166 42.4257 38.6502 44.8631 38.5027C47.3005 38.3553 49.6586 37.5811 51.7092 36.2552C53.7598 34.9293 55.4334 33.0966 56.568 30.9343C57.7027 28.772 58.26 26.3535 58.186 23.9127C58.112 21.4719 57.4092 19.0916 56.1456 17.002C54.8821 14.9125 53.1006 13.1844 50.9734 11.9852C48.8463 10.7859 46.4457 10.156 44.0038 10.1565L44.004 10.1569ZM44.004 35.5492C41.7881 35.5493 39.6219 34.8922 37.7794 33.6611C35.9369 32.43 34.5009 30.6802 33.6528 28.6329C32.8048 26.5857 32.5829 24.3329 33.0152 22.1596C33.4475 19.9862 34.5146 17.9899 36.0815 16.4229C37.6484 14.856 39.6448 13.789 41.8182 13.3567C43.9915 12.9244 46.2443 13.1463 48.2915 13.9943C50.3388 14.8423 52.0886 16.2783 53.3197 18.1208C54.5508 19.9633 55.2078 22.1295 55.2078 24.3454C55.2045 27.3158 54.023 30.1636 51.9226 32.264C49.8222 34.3644 46.9744 35.5459 44.004 35.5492Z" fill="url(#paint21_linear_220_210)"/>
<path d="M41.1325 22.67V26.1057L44.1079 27.8237L47.0836 26.1057V22.67L44.1079 20.9519L41.1325 22.67Z" fill="url(#paint22_linear_220_210)"/>
<path d="M20.9286 29.1991C21.933 29.05 22.9292 28.8501 23.9133 28.6V25.6897C22.9817 25.9122 21.9817 26.0997 20.9286 26.2489V29.1991Z" fill="url(#paint23_linear_220_210)"/>
<path d="M10.7693 29.4623C11.7357 29.5523 12.735 29.6097 13.7561 29.6332V26.6489C12.7396 26.6264 11.7408 26.5717 10.7713 26.4856V29.4238C10.7716 29.4367 10.7701 29.4493 10.7693 29.4623Z" fill="url(#paint24_linear_220_210)"/>
<path d="M8.67776 29.2089V26.2455C7.62983 26.0964 6.63033 25.9083 5.69312 25.6838V28.6048C6.67667 28.8585 7.67294 29.0602 8.67776 29.2089Z" fill="url(#paint25_linear_220_210)"/>
<path d="M15.8502 26.65V29.6336C16.8686 29.609 17.869 29.5484 18.8366 29.4562C18.8366 29.4454 18.8349 29.4348 18.8349 29.424V26.4885C17.8698 26.5736 16.8714 26.6278 15.8502 26.65Z" fill="url(#paint26_linear_220_210)"/>
<path d="M5.69312 34.5023C5.69312 35.0637 6.49201 35.9759 8.67776 36.8259V33.9731C7.39808 33.5391 6.42527 33.0668 5.69312 32.583V34.5023Z" fill="url(#paint27_linear_220_210)"/>
<path d="M15.85 38.3112C15.85 38.3243 15.8486 38.3374 15.8481 38.3497C16.8143 38.4397 17.8137 38.4972 18.8347 38.5206V35.5364C17.8181 35.514 16.8194 35.4592 15.85 35.373V38.3112Z" fill="url(#paint28_linear_220_210)"/>
<path d="M10.7715 37.4922C11.7551 37.746 12.7514 37.9476 13.7562 38.0964V35.1329C12.7082 34.9839 11.7088 34.7957 10.7715 34.5713V37.4922Z" fill="url(#paint29_linear_220_210)"/>
<defs>
<linearGradient id="paint0_linear_220_210" x1="17.3435" y1="9.98071" x2="17.3435" y2="13.1283" gradientUnits="userSpaceOnUse">
<stop stop-color="#FFB800"/>
<stop offset="1" stop-color="#C68F00"/>
</linearGradient>
<linearGradient id="paint1_linear_220_210" x1="27.4994" y1="7.19116" x2="27.4994" y2="11.434" gradientUnits="userSpaceOnUse">
<stop stop-color="#FFB800"/>
<stop offset="1" stop-color="#C68F00"/>
</linearGradient>
<linearGradient id="paint2_linear_220_210" x1="12.263" y1="9.98071" x2="12.263" y2="13.1283" gradientUnits="userSpaceOnUse">
<stop stop-color="#FFB800"/>
<stop offset="1" stop-color="#C68F00"/>
</linearGradient>
<linearGradient id="paint3_linear_220_210" x1="7.18544" y1="9.17871" x2="7.18544" y2="12.7039" gradientUnits="userSpaceOnUse">
<stop stop-color="#FFB800"/>
<stop offset="1" stop-color="#C68F00"/>
</linearGradient>
<linearGradient id="paint4_linear_220_210" x1="10.8162" y1="18.21" x2="10.8162" y2="24.568" gradientUnits="userSpaceOnUse">
<stop stop-color="#FFB800"/>
<stop offset="1" stop-color="#C68F00"/>
</linearGradient>
<linearGradient id="paint5_linear_220_210" x1="14.8038" y1="0" x2="14.8038" y2="8.06316" gradientUnits="userSpaceOnUse">
<stop stop-color="#FFB800"/>
<stop offset="1" stop-color="#C68F00"/>
</linearGradient>
<linearGradient id="paint6_linear_220_210" x1="2.10707" y1="7.19116" x2="2.10707" y2="11.4335" gradientUnits="userSpaceOnUse">
<stop stop-color="#FFB800"/>
<stop offset="1" stop-color="#C68F00"/>
</linearGradient>
<linearGradient id="paint7_linear_220_210" x1="2.10707" y1="23.6963" x2="2.10707" y2="27.9386" gradientUnits="userSpaceOnUse">
<stop stop-color="#FFB800"/>
<stop offset="1" stop-color="#C68F00"/>
</linearGradient>
<linearGradient id="paint8_linear_220_210" x1="27.4939" y1="18.0698" x2="27.4939" y2="21.5897" gradientUnits="userSpaceOnUse">
<stop stop-color="#FFB800"/>
<stop offset="1" stop-color="#C68F00"/>
</linearGradient>
<linearGradient id="paint9_linear_220_210" x1="26.9702" y1="24.4004" x2="26.9702" y2="27.9382" gradientUnits="userSpaceOnUse">
<stop stop-color="#FFB800"/>
<stop offset="1" stop-color="#C68F00"/>
</linearGradient>
<linearGradient id="paint10_linear_220_210" x1="20.3755" y1="10.4683" x2="20.3755" y2="16.9505" gradientUnits="userSpaceOnUse">
<stop stop-color="#FFB800"/>
<stop offset="1" stop-color="#C68F00"/>
</linearGradient>
<linearGradient id="paint11_linear_220_210" x1="22.4219" y1="18.8694" x2="22.4219" y2="22.0165" gradientUnits="userSpaceOnUse">
<stop stop-color="#FFB800"/>
<stop offset="1" stop-color="#C68F00"/>
</linearGradient>
<linearGradient id="paint12_linear_220_210" x1="12.2639" y1="18.0662" x2="12.2639" y2="21.5912" gradientUnits="userSpaceOnUse">
<stop stop-color="#FFB800"/>
<stop offset="1" stop-color="#C68F00"/>
</linearGradient>
<linearGradient id="paint13_linear_220_210" x1="7.18544" y1="16.0784" x2="7.18544" y2="20.3212" gradientUnits="userSpaceOnUse">
<stop stop-color="#FFB800"/>
<stop offset="1" stop-color="#C68F00"/>
</linearGradient>
<linearGradient id="paint14_linear_220_210" x1="17.3414" y1="18.8682" x2="17.3414" y2="22.0159" gradientUnits="userSpaceOnUse">
<stop stop-color="#FFB800"/>
<stop offset="1" stop-color="#C68F00"/>
</linearGradient>
<linearGradient id="paint15_linear_220_210" x1="22.4209" y1="9.17871" x2="22.4209" y2="12.7037" gradientUnits="userSpaceOnUse">
<stop stop-color="#FFB800"/>
<stop offset="1" stop-color="#C68F00"/>
</linearGradient>
<linearGradient id="paint16_linear_220_210" x1="18.5108" y1="29.1084" x2="18.5108" y2="33.4554" gradientUnits="userSpaceOnUse">
<stop stop-color="#FFB800"/>
<stop offset="1" stop-color="#C68F00"/>
</linearGradient>
<linearGradient id="paint17_linear_220_210" x1="27.4994" y1="34.5701" x2="27.4994" y2="38.0997" gradientUnits="userSpaceOnUse">
<stop stop-color="#FFB800"/>
<stop offset="1" stop-color="#C68F00"/>
</linearGradient>
<linearGradient id="paint18_linear_220_210" x1="22.422" y1="35.3713" x2="22.422" y2="38.5213" gradientUnits="userSpaceOnUse">
<stop stop-color="#FFB800"/>
<stop offset="1" stop-color="#C68F00"/>
</linearGradient>
<linearGradient id="paint19_linear_220_210" x1="31.8911" y1="34.2432" x2="31.8911" y2="36.8224" gradientUnits="userSpaceOnUse">
<stop stop-color="#FFB800"/>
<stop offset="1" stop-color="#C68F00"/>
</linearGradient>
<linearGradient id="paint20_linear_220_210" x1="44.004" y1="15.2354" x2="44.004" y2="33.4557" gradientUnits="userSpaceOnUse">
<stop stop-color="#FFB800"/>
<stop offset="1" stop-color="#C68F00"/>
</linearGradient>
<linearGradient id="paint21_linear_220_210" x1="44.004" y1="10.1565" x2="44.004" y2="38.5286" gradientUnits="userSpaceOnUse">
<stop stop-color="#FFB800"/>
<stop offset="1" stop-color="#C68F00"/>
</linearGradient>
<linearGradient id="paint22_linear_220_210" x1="44.108" y1="20.9519" x2="44.108" y2="27.8237" gradientUnits="userSpaceOnUse">
<stop stop-color="#FFB800"/>
<stop offset="1" stop-color="#C68F00"/>
</linearGradient>
<linearGradient id="paint23_linear_220_210" x1="22.4209" y1="25.6897" x2="22.4209" y2="29.1991" gradientUnits="userSpaceOnUse">
<stop stop-color="#FFB800"/>
<stop offset="1" stop-color="#C68F00"/>
</linearGradient>
<linearGradient id="paint24_linear_220_210" x1="12.2627" y1="26.4856" x2="12.2627" y2="29.6332" gradientUnits="userSpaceOnUse">
<stop stop-color="#FFB800"/>
<stop offset="1" stop-color="#C68F00"/>
</linearGradient>
<linearGradient id="paint25_linear_220_210" x1="7.18544" y1="25.6838" x2="7.18544" y2="29.2089" gradientUnits="userSpaceOnUse">
<stop stop-color="#FFB800"/>
<stop offset="1" stop-color="#C68F00"/>
</linearGradient>
<linearGradient id="paint26_linear_220_210" x1="17.3434" y1="26.4885" x2="17.3434" y2="29.6336" gradientUnits="userSpaceOnUse">
<stop stop-color="#FFB800"/>
<stop offset="1" stop-color="#C68F00"/>
</linearGradient>
<linearGradient id="paint27_linear_220_210" x1="7.18544" y1="32.583" x2="7.18544" y2="36.8259" gradientUnits="userSpaceOnUse">
<stop stop-color="#FFB800"/>
<stop offset="1" stop-color="#C68F00"/>
</linearGradient>
<linearGradient id="paint28_linear_220_210" x1="17.3414" y1="35.373" x2="17.3414" y2="38.5206" gradientUnits="userSpaceOnUse">
<stop stop-color="#FFB800"/>
<stop offset="1" stop-color="#C68F00"/>
</linearGradient>
<linearGradient id="paint29_linear_220_210" x1="12.2639" y1="34.5713" x2="12.2639" y2="38.0964" gradientUnits="userSpaceOnUse">
<stop stop-color="#FFB800"/>
<stop offset="1" stop-color="#C68F00"/>
</linearGradient>
</defs>
</svg>
