<svg width="68" height="59" viewBox="0 0 68 59" fill="none" xmlns="http://www.w3.org/2000/svg">
<path d="M33.9915 15.6471C38.3124 15.6471 41.8151 12.1444 41.8151 7.82356C41.8151 3.50273 38.3124 0 33.9915 0C29.6707 0 26.168 3.50273 26.168 7.82356C26.168 12.1444 29.6707 15.6471 33.9915 15.6471Z" fill="url(#paint0_linear_220_263)"/>
<path d="M61.3781 29.3477L54.0866 27.8267C51.6024 27.3063 49.1497 28.4449 47.8531 30.4691C46.5937 29.8222 45.2394 29.2644 43.7989 28.8014V24.4655C43.8019 21.1849 41.1162 18.5022 37.8472 18.5022H30.3917C27.1053 18.5022 24.4313 21.1849 24.4313 24.4655V28.8244C23.0052 29.2786 21.6653 29.8365 20.3973 30.4863C19.1006 28.4534 16.6451 27.3063 14.1579 27.8267L6.86047 29.3477C3.65741 30.0176 1.57856 33.1948 2.24849 36.4093L4.08009 45.1587C4.74429 48.3646 7.92429 50.4435 11.1303 49.7735L13.4391 49.2905C14.5949 50.9984 16.1936 52.5654 18.2407 53.9052C22.5047 56.7 28.1374 58.2412 34.115 58.2412C43.2612 58.2412 51.1394 54.5637 54.768 49.2818L57.1142 49.7735C60.3173 50.4405 63.4973 48.3646 64.1615 45.1587L65.9959 36.4093C66.6629 33.1948 64.584 30.0176 61.3781 29.3477ZM34.112 55.2538C28.7123 55.2538 23.6518 53.8938 19.8766 51.4066C18.5828 50.5613 17.5103 49.6212 16.6507 48.6148L18.4189 48.2438C21.6277 47.5768 23.7066 44.3996 23.0366 41.1908L21.3949 33.3241C22.3523 32.8094 23.3587 32.358 24.4282 31.9728V33.4075C24.4282 36.6824 27.108 39.3651 30.3886 39.3651H37.8441C41.1162 39.3651 43.796 36.6796 43.796 33.4075V31.898C44.8857 32.2861 45.9092 32.7319 46.8582 33.2379L45.1933 41.1938C44.5291 44.4026 46.605 47.5798 49.8138 48.2468L51.5993 48.6205C48.2699 52.5626 41.6826 55.2538 34.112 55.2538Z" fill="url(#paint1_linear_220_263)"/>
<path d="M59.7912 25.932C64.1121 25.932 67.6148 22.4293 67.6148 18.1085C67.6148 13.7876 64.1121 10.2849 59.7912 10.2849C55.4704 10.2849 51.9677 13.7876 51.9677 18.1085C51.9677 22.4293 55.4704 25.932 59.7912 25.932Z" fill="url(#paint2_linear_220_263)"/>
<path d="M10.0435 25.7679C14.2758 24.8823 16.9786 20.7334 16.1045 16.5038C15.2131 12.2772 11.0728 9.56291 6.83748 10.4485C2.61086 11.3312 -0.103411 15.4773 0.782195 19.7069C1.665 23.9392 5.81111 26.6507 10.0435 25.7679Z" fill="url(#paint3_linear_220_263)"/>
<defs>
<linearGradient id="paint0_linear_220_263" x1="33.9915" y1="0" x2="33.9915" y2="15.6471" gradientUnits="userSpaceOnUse">
<stop stop-color="#FFB800"/>
<stop offset="1" stop-color="#C68F00"/>
</linearGradient>
<linearGradient id="paint1_linear_220_263" x1="34.1217" y1="18.5022" x2="34.1217" y2="58.2412" gradientUnits="userSpaceOnUse">
<stop stop-color="#FFB800"/>
<stop offset="1" stop-color="#C68F00"/>
</linearGradient>
<linearGradient id="paint2_linear_220_263" x1="59.7912" y1="10.2849" x2="59.7912" y2="25.932" gradientUnits="userSpaceOnUse">
<stop stop-color="#FFB800"/>
<stop offset="1" stop-color="#C68F00"/>
</linearGradient>
<linearGradient id="paint3_linear_220_263" x1="8.44167" y1="10.281" x2="8.44167" y2="25.9346" gradientUnits="userSpaceOnUse">
<stop stop-color="#FFB800"/>
<stop offset="1" stop-color="#C68F00"/>
</linearGradient>
</defs>
</svg>
