<svg width="56" height="59" viewBox="0 0 56 59" fill="none" xmlns="http://www.w3.org/2000/svg">
<path fill-rule="evenodd" clip-rule="evenodd" d="M4.80219 10.1882V6.28125C4.80219 4.61462 5.46381 3.01709 6.64259 1.8404C7.81927 0.66162 9.41681 0 11.0834 0H44.5834C46.2501 0 47.8476 0.66162 49.0243 1.8404C50.2031 3.01709 50.8647 4.61462 50.8647 6.28125V10.1882L54.9454 22.4199C55.0166 22.6335 55.0522 22.8554 55.0522 23.0815C55.0522 26.9843 52.3827 30.2631 48.7709 31.1927V52.394C48.7709 54.0606 48.1093 55.6582 46.9305 56.8349C45.7538 58.0136 44.1563 58.6753 42.4897 58.6753H36.2084V44.0713C36.2084 41.852 35.327 39.7226 33.7566 38.1523C32.1863 36.582 30.057 35.7005 27.8376 35.7005C27.8355 35.7005 27.8313 35.7005 27.8293 35.7005C23.2062 35.7005 19.4584 39.4483 19.4584 44.0713V58.6753H13.1772C11.5106 58.6753 9.91302 58.0136 8.73634 56.8349C7.55756 55.6582 6.89594 54.0606 6.89594 52.394V31.1927C3.28422 30.2631 0.614685 26.9843 0.614685 23.0815C0.614685 22.8554 0.650268 22.6335 0.721456 22.4199L4.80219 10.1882ZM47.2592 12.6128H8.40762L4.81474 23.3851C4.96968 25.5563 6.77869 27.269 8.98969 27.269C11.3033 27.269 13.1772 25.3951 13.1772 23.0815C13.1772 21.9258 14.1152 20.9878 15.2709 20.9878C16.4267 20.9878 17.3647 21.9258 17.3647 23.0815C17.3647 25.3951 19.2386 27.269 21.5522 27.269C23.7695 27.269 25.5826 25.5479 25.7292 23.3683C25.8046 22.267 26.7195 21.4128 27.823 21.4149C27.823 21.4149 27.8376 21.4149 27.8313 21.4149H27.846C28.9473 21.4149 29.8623 22.2691 29.9377 23.3683C30.0842 25.5479 31.8974 27.269 34.1147 27.269C36.4283 27.269 38.3022 25.3951 38.3022 23.0815C38.3022 21.9258 39.2402 20.9878 40.3959 20.9878C41.5517 20.9878 42.4897 21.9258 42.4897 23.0815C42.4897 25.3951 44.3636 27.269 46.6772 27.269C48.8882 27.269 50.6972 25.5563 50.8521 23.3851L47.2592 12.6128Z" fill="url(#paint0_linear_220_30)"/>
<defs>
<linearGradient id="paint0_linear_220_30" x1="27.8334" y1="0" x2="27.8334" y2="58.6753" gradientUnits="userSpaceOnUse">
<stop stop-color="#FFB800"/>
<stop offset="1" stop-color="#C68F00"/>
</linearGradient>
</defs>
</svg>
