<svg width="68" height="67" viewBox="0 0 68 67" fill="none" xmlns="http://www.w3.org/2000/svg">
<path d="M31.8334 48.0219H29.7397V50.1232C29.7397 50.9318 29.2776 51.6663 28.5538 52.0172C27.8279 52.366 26.965 52.2676 26.3373 51.7647L15.8686 43.3594C15.3717 42.9595 15.0834 42.356 15.0834 41.7179C15.0834 41.0797 15.3717 40.4763 15.8686 40.0761L26.3373 31.6708C26.9671 31.166 27.8239 31.0695 28.5538 31.4183C29.2776 31.7694 29.7397 32.5039 29.7397 33.3125V35.4138H31.8334V29.1097C31.8334 27.9483 32.77 27.0084 33.9272 27.0084H40.2084C41.3106 27.0084 42.2122 27.862 42.2961 28.9456L47.3259 24.9069L42.2961 20.8683C42.2124 21.9518 41.3106 22.8054 40.2084 22.8054H33.9272C32.77 22.8054 31.8334 21.8655 31.8334 20.7041V4C16.6477 5.08498 4.61469 17.7999 4.61469 33.3125C4.61469 48.8251 16.6477 61.54 31.8334 62.625V48.0219Z" fill="url(#paint0_linear_13_875)"/>
<path d="M36.0211 4V18.6031H38.1149V16.5016C38.1149 15.693 38.577 14.9585 39.3008 14.6076C40.0246 14.2567 40.8874 14.3551 41.5172 14.8601L51.986 23.2654C52.4828 23.6655 52.7711 24.269 52.7711 24.9071C52.7711 25.5453 52.4828 26.1487 51.986 26.5488L41.5172 34.9542C40.8895 35.4611 40.0307 35.5576 39.3008 35.2067C38.577 34.8556 38.1149 34.1211 38.1149 33.3125V31.2112H36.0211V37.5153C36.0211 38.6767 35.0846 39.6166 33.9274 39.6166H27.6461C26.544 39.6166 25.6424 38.7629 25.5585 37.6794L20.5286 41.7181L25.5585 45.7567C25.6422 44.6732 26.544 43.8196 27.6461 43.8196H33.9274C35.0846 43.8196 36.0211 44.7594 36.0211 45.9209V62.625C51.2069 61.54 63.2399 48.8251 63.2399 33.3125C63.2399 17.7999 51.2069 5.08498 36.0211 4Z" fill="url(#paint1_linear_13_875)"/>
<path d="M31.8334 48.0219H29.7397V50.1232C29.7397 50.9318 29.2776 51.6663 28.5538 52.0172C27.8279 52.366 26.965 52.2676 26.3373 51.7647L15.8686 43.3594C15.3717 42.9595 15.0834 42.356 15.0834 41.7179C15.0834 41.0797 15.3717 40.4763 15.8686 40.0761L26.3373 31.6708C26.9671 31.166 27.8239 31.0695 28.5538 31.4183C29.2776 31.7694 29.7397 32.5039 29.7397 33.3125V35.4138H31.8334V29.1097C31.8334 27.9483 32.77 27.0084 33.9272 27.0084H40.2084C41.3106 27.0084 42.2122 27.862 42.2961 28.9456L47.3259 24.9069L42.2961 20.8683C42.2124 21.9518 41.3106 22.8054 40.2084 22.8054H33.9272C32.77 22.8054 31.8334 21.8655 31.8334 20.7041V4C16.6477 5.08498 4.61469 17.7999 4.61469 33.3125C4.61469 48.8251 16.6477 61.54 31.8334 62.625V48.0219Z" fill="url(#paint2_linear_13_875)"/>
<path d="M36.0211 4V18.6031H38.1149V16.5016C38.1149 15.693 38.577 14.9585 39.3008 14.6076C40.0246 14.2567 40.8874 14.3551 41.5172 14.8601L51.986 23.2654C52.4828 23.6655 52.7711 24.269 52.7711 24.9071C52.7711 25.5453 52.4828 26.1487 51.986 26.5488L41.5172 34.9542C40.8895 35.4611 40.0307 35.5576 39.3008 35.2067C38.577 34.8556 38.1149 34.1211 38.1149 33.3125V31.2112H36.0211V37.5153C36.0211 38.6767 35.0846 39.6166 33.9274 39.6166H27.6461C26.544 39.6166 25.6424 38.7629 25.5585 37.6794L20.5286 41.7181L25.5585 45.7567C25.6422 44.6732 26.544 43.8196 27.6461 43.8196H33.9274C35.0846 43.8196 36.0211 44.7594 36.0211 45.9209V62.625C51.2069 61.54 63.2399 48.8251 63.2399 33.3125C63.2399 17.7999 51.2069 5.08498 36.0211 4Z" fill="url(#paint3_linear_13_875)"/>
<defs>
<linearGradient id="paint0_linear_13_875" x1="25.9703" y1="4" x2="25.9703" y2="62.625" gradientUnits="userSpaceOnUse">
<stop stop-color="#FFB800"/>
<stop offset="1" stop-color="#C68F00"/>
</linearGradient>
<linearGradient id="paint1_linear_13_875" x1="41.8843" y1="4" x2="41.8843" y2="62.625" gradientUnits="userSpaceOnUse">
<stop stop-color="#FFB800"/>
<stop offset="1" stop-color="#C68F00"/>
</linearGradient>
<linearGradient id="paint2_linear_13_875" x1="25.9703" y1="4" x2="25.9703" y2="62.625" gradientUnits="userSpaceOnUse">
<stop stop-color="#FFB800"/>
<stop offset="1" stop-color="#C68F00"/>
</linearGradient>
<linearGradient id="paint3_linear_13_875" x1="41.8843" y1="4" x2="41.8843" y2="62.625" gradientUnits="userSpaceOnUse">
<stop stop-color="#FFB800"/>
<stop offset="1" stop-color="#C68F00"/>
</linearGradient>
</defs>
</svg>
