<svg width="68" height="67" viewBox="0 0 68 67" fill="none" xmlns="http://www.w3.org/2000/svg">
<path d="M63.3272 24.7512C60.3127 24.8199 58.3565 27.9828 59.6337 30.7094C57.3371 32.6579 54.1337 34.6626 52.4194 34.2347C52.2506 34.1928 51.3948 33.1329 51.3882 29.1116C51.3856 27.468 51.5269 25.8375 51.6591 24.6741C53.7361 24.2745 55.2699 22.3359 55.0269 20.0966C54.7822 17.8415 52.8192 16.2266 50.5564 16.3857C47.4617 16.6033 45.6495 20.0735 47.2948 22.7479C45.718 25.0981 43.2421 27.8174 41.5121 27.8893C41.2936 27.7663 39.8947 26.7796 38.0142 20.9184C37.2987 18.6866 36.5499 15.6444 36.5499 15.5911C37.6779 14.7845 38.3875 13.4309 38.2939 11.9216C38.1651 9.8451 36.4889 8.15518 34.4135 8.01045C31.9693 7.83994 29.9273 9.77888 29.9273 12.1875C29.9273 13.589 30.6182 14.8322 31.6795 15.5911C31.6795 15.635 31.0151 18.4241 30.2151 20.9184C28.3347 26.7796 26.9358 27.7663 26.7173 27.8893C24.9873 27.8174 22.5101 25.0968 20.9346 22.7479C22.5792 20.0745 20.7688 16.6041 17.6742 16.3859C15.4113 16.2262 13.4474 17.8409 13.2026 20.0963C12.9595 22.3357 14.4933 24.2745 16.5704 24.6741C16.7026 25.8375 16.8439 27.468 16.8413 29.1116C16.8347 33.1329 15.9789 34.1928 15.8101 34.2347C14.0959 34.6639 10.8924 32.6579 8.59582 30.7094C9.87301 27.983 7.91574 24.8195 4.90178 24.7512C2.6985 24.7012 0.801166 26.4022 0.628039 28.5992C0.439339 30.9931 2.27465 33.0112 4.60329 33.1198C5.63486 35.0875 7.86706 39.6729 9.42246 45.2074C9.50202 45.4906 9.75864 45.6876 10.0528 45.6876H58.1766C58.4708 45.6876 58.7274 45.4906 58.8069 45.2074C60.3625 39.6717 62.5958 35.0875 63.6274 33.1198C65.9545 33.0099 67.7899 30.9935 67.6013 28.5996C67.4285 26.4022 65.5308 24.7009 63.3272 24.7512ZM34.1148 42.5469C32.2369 42.5469 30.9741 40.6534 30.9741 37.836C30.9741 35.0186 32.2369 33.125 34.1148 33.125C35.9926 33.125 37.2554 35.0186 37.2554 37.836C37.2554 40.6534 35.9926 42.5469 34.1148 42.5469Z" fill="url(#paint0_linear_13_878)"/>
<path d="M10.6245 50.6314C10.9128 52.446 11.0831 54.3013 11.0835 56.1497C11.0837 57.3068 12.0088 58.25 13.1658 58.25H55.0637C56.2207 58.25 57.1458 57.3068 57.146 56.1497C57.1464 54.3015 57.3168 52.4461 57.605 50.6314C57.668 50.2342 57.3617 49.875 56.9596 49.875H11.2699C10.8678 49.875 10.5613 50.2342 10.6245 50.6314Z" fill="url(#paint1_linear_13_878)"/>
<path d="M63.3272 24.7512C60.3127 24.8199 58.3565 27.9828 59.6337 30.7094C57.3371 32.6579 54.1337 34.6626 52.4194 34.2347C52.2506 34.1928 51.3948 33.1329 51.3882 29.1116C51.3856 27.468 51.5269 25.8375 51.6591 24.6741C53.7361 24.2745 55.2699 22.3359 55.0269 20.0966C54.7822 17.8415 52.8192 16.2266 50.5564 16.3857C47.4617 16.6033 45.6495 20.0735 47.2948 22.7479C45.718 25.0981 43.2421 27.8174 41.5121 27.8893C41.2936 27.7663 39.8947 26.7796 38.0142 20.9184C37.2987 18.6866 36.5499 15.6444 36.5499 15.5911C37.6779 14.7845 38.3875 13.4309 38.2939 11.9216C38.1651 9.8451 36.4889 8.15518 34.4135 8.01045C31.9693 7.83994 29.9273 9.77888 29.9273 12.1875C29.9273 13.589 30.6182 14.8322 31.6795 15.5911C31.6795 15.635 31.0151 18.4241 30.2151 20.9184C28.3347 26.7796 26.9358 27.7663 26.7173 27.8893C24.9873 27.8174 22.5101 25.0968 20.9346 22.7479C22.5792 20.0745 20.7688 16.6041 17.6742 16.3859C15.4113 16.2262 13.4474 17.8409 13.2026 20.0963C12.9595 22.3357 14.4933 24.2745 16.5704 24.6741C16.7026 25.8375 16.8439 27.468 16.8413 29.1116C16.8347 33.1329 15.9789 34.1928 15.8101 34.2347C14.0959 34.6639 10.8924 32.6579 8.59582 30.7094C9.87301 27.983 7.91574 24.8195 4.90178 24.7512C2.6985 24.7012 0.801166 26.4022 0.628039 28.5992C0.439339 30.9931 2.27465 33.0112 4.60329 33.1198C5.63486 35.0875 7.86706 39.6729 9.42246 45.2074C9.50202 45.4906 9.75864 45.6876 10.0528 45.6876H58.1766C58.4708 45.6876 58.7274 45.4906 58.8069 45.2074C60.3625 39.6717 62.5958 35.0875 63.6274 33.1198C65.9545 33.0099 67.7899 30.9935 67.6013 28.5996C67.4285 26.4022 65.5308 24.7009 63.3272 24.7512ZM34.1148 42.5469C32.2369 42.5469 30.9741 40.6534 30.9741 37.836C30.9741 35.0186 32.2369 33.125 34.1148 33.125C35.9926 33.125 37.2554 35.0186 37.2554 37.836C37.2554 40.6534 35.9926 42.5469 34.1148 42.5469Z" fill="url(#paint2_linear_13_878)"/>
<path d="M10.6245 50.6314C10.9128 52.446 11.0831 54.3013 11.0835 56.1497C11.0837 57.3068 12.0088 58.25 13.1658 58.25H55.0637C56.2207 58.25 57.1458 57.3068 57.146 56.1497C57.1464 54.3015 57.3168 52.4461 57.605 50.6314C57.668 50.2342 57.3617 49.875 56.9596 49.875H11.2699C10.8678 49.875 10.5613 50.2342 10.6245 50.6314Z" fill="url(#paint3_linear_13_878)"/>
<defs>
<linearGradient id="paint0_linear_13_878" x1="34.1147" y1="8" x2="34.1147" y2="45.6876" gradientUnits="userSpaceOnUse">
<stop stop-color="#FFB800"/>
<stop offset="1" stop-color="#C68F00"/>
</linearGradient>
<linearGradient id="paint1_linear_13_878" x1="34.1147" y1="49.875" x2="34.1147" y2="58.25" gradientUnits="userSpaceOnUse">
<stop stop-color="#FFB800"/>
<stop offset="1" stop-color="#C68F00"/>
</linearGradient>
<linearGradient id="paint2_linear_13_878" x1="34.1147" y1="8" x2="34.1147" y2="45.6876" gradientUnits="userSpaceOnUse">
<stop stop-color="#FFB800"/>
<stop offset="1" stop-color="#C68F00"/>
</linearGradient>
<linearGradient id="paint3_linear_13_878" x1="34.1147" y1="49.875" x2="34.1147" y2="58.25" gradientUnits="userSpaceOnUse">
<stop stop-color="#FFB800"/>
<stop offset="1" stop-color="#C68F00"/>
</linearGradient>
</defs>
</svg>
