<svg width="52" height="58" viewBox="0 0 52 58" fill="none" xmlns="http://www.w3.org/2000/svg">
<path d="M23.0342 57.9296C17.8564 54.9234 13.0107 52.0842 8.16486 49.245C6.273 48.1427 4.34795 47.007 2.4561 45.8714C0.796571 44.8693 0 43.4664 0 41.4622C0.066381 36.8526 0.066381 32.2431 0 27.6336C0 25.5961 0.862952 24.1597 2.58886 23.1576C7.06957 20.5523 11.5503 17.9469 16.031 15.3081C16.7612 14.8739 17.2923 14.8739 17.9893 15.3081C19.3832 16.1766 20.8104 16.9782 22.3704 17.88C19.2505 19.7172 16.2634 21.4875 13.243 23.2245C11.1189 24.4938 8.96143 25.7296 6.80405 26.9655C5.84152 27.5 5.37686 28.2348 5.41005 29.3705C5.44324 32.811 5.44324 36.2514 5.41005 39.7252C5.37686 40.9277 5.90791 41.6626 6.93681 42.2304C11.9154 45.103 16.8608 48.0425 21.8393 50.8817C22.8019 51.4162 23.1669 52.0174 23.1005 53.1197C22.9678 54.6227 23.0342 56.1259 23.0342 57.9296Z" fill="#FFB800"/>
<path d="M47.4957 12.0349C50.516 13.1706 51.8104 15.2416 51.6444 18.5818C51.4453 22.7905 51.5781 27.0326 51.6113 31.2413C51.6113 33.1453 50.9143 34.5816 49.2879 35.5502C42.5835 39.4918 35.8458 43.4332 29.1414 47.3413C29.0418 47.3747 28.9422 47.3747 28.6102 47.3747C28.6102 45.5042 28.6102 43.6671 28.6102 41.7965C28.6102 41.0282 29.3405 40.8612 29.8383 40.594C34.6842 37.7214 39.5631 34.8822 44.4421 32.0763C45.1059 31.6755 45.7698 31.3081 46.2012 30.6067C46.5995 30.1056 46.3672 29.5378 46.3672 29.0033C46.4004 23.826 46.4004 18.682 46.3672 13.5047C46.3008 12.6696 46.4335 12.0015 47.4957 12.0349Z" fill="white"/>
<path d="M0.0333862 20.5522C0.0333862 19.4833 0.0997668 18.6483 0.0333862 17.8132C-0.165757 15.3749 0.896339 13.7381 3.02053 12.5356C6.77106 10.4313 10.4884 8.22673 14.1725 5.98877C16.0644 4.85308 17.8899 4.81968 19.7818 5.95536C24.0965 8.49395 28.4444 11.0659 32.7924 13.5711C33.6553 14.0722 34.0536 14.64 33.9872 15.6755C33.8876 17.212 33.9541 18.7819 33.9541 20.5856C30.7678 18.7485 27.7474 17.0116 24.7271 15.2413C22.7689 14.1055 20.7774 13.0032 18.8856 11.7674C17.558 10.899 16.4627 10.9323 15.1019 11.7674C10.3888 14.64 5.60938 17.379 0.829958 20.1848C0.630815 20.285 0.431672 20.3852 0.0333862 20.5522Z" fill="white"/>
<path d="M37.4724 13.0702C37.1072 12.2018 36.3771 11.7342 35.6137 11.2999C30.6019 8.39392 25.6233 5.4545 20.6116 2.51508C24.329 -0.62475 26.0216 -0.724957 30.0045 1.68002C33.3568 3.71757 36.7422 5.65492 40.1276 7.65906C41.2893 8.36051 42.3182 9.16221 42.4841 10.6319C42.4841 16.7445 42.5173 22.8572 42.4841 28.9698C41.2228 30.1055 39.6629 30.807 38.1694 31.5752C37.4391 31.2078 37.7047 30.5064 37.7047 29.9385C37.6715 24.8279 37.7047 19.7173 37.6715 14.6401C37.7047 14.1391 37.9702 13.5378 37.4724 13.0702Z" fill="#FFB800"/>
<path d="M28.5766 57.9962C28.5766 55.8919 28.5766 54.1884 28.5766 52.4848C28.5766 51.917 28.7426 51.583 29.2405 51.2823C36.6087 46.9734 43.977 42.6645 51.5112 38.2554C51.5112 39.8921 51.5776 41.2951 51.4781 42.6979C51.4117 43.867 50.8142 44.8357 49.8186 45.4369C42.8486 49.5788 35.8786 53.6873 28.5766 57.9962Z" fill="#FFB800"/>
<path d="M8.89476 34.4811C8.89476 34.3809 8.89476 34.2472 8.89476 34.147C8.89476 29.3371 8.89476 29.3705 13.2427 27.2328C14.1057 26.7985 14.2716 26.9989 14.2384 27.8674C14.2053 30.1388 14.3048 32.4435 14.2053 34.7149C14.1388 35.9174 14.6035 36.5186 15.5992 37.0531C17.7898 38.2221 19.8808 39.5583 22.0714 40.7941C22.7683 41.195 23.1335 41.6292 23.0671 42.4977C23.0007 43.9006 23.0339 45.2701 23.0671 46.673C23.0671 47.5414 22.8016 47.5748 22.1046 47.174C18.0221 44.769 13.9065 42.3641 9.79093 39.9925C9.16032 39.6251 8.86157 39.1574 8.89476 38.3892C8.92795 37.0531 8.89476 35.7504 8.89476 34.4811Z" fill="white"/>
</svg>
