<svg width="34" height="34" viewBox="0 0 34 34" fill="none" xmlns="http://www.w3.org/2000/svg">
<path d="M30.7291 8.02398C29.7015 8.50312 28.6117 8.81791 27.4959 8.95795C28.6736 8.21603 29.5555 7.04827 29.9774 5.67201C28.8717 6.3645 27.6617 6.85217 26.3998 7.11387C25.5519 6.15783 24.4281 5.52384 23.2032 5.31044C21.9783 5.09704 20.7208 5.31618 19.6262 5.9338C18.5316 6.55142 17.6611 7.53293 17.1501 8.7258C16.6391 9.91867 16.5161 11.2561 16.8003 12.5302C14.5593 12.4123 12.3668 11.7989 10.3652 10.7299C8.36354 9.66081 6.5975 8.15998 5.18169 6.32477C4.46162 7.63252 4.24102 9.1803 4.56474 10.6534C4.88847 12.1265 5.73221 13.4143 6.92441 14.255C6.03005 14.2251 5.1554 13.9704 4.37338 13.5119V13.5852C4.374 14.9576 4.82517 16.2876 5.65029 17.3491C6.47541 18.4107 7.62361 19.1385 8.89992 19.4089C8.07005 19.6459 7.19993 19.6808 6.35535 19.5111C6.71413 20.6904 7.41332 21.7221 8.35527 22.4622C9.29721 23.2022 10.4349 23.6137 11.6094 23.639C9.24861 25.5922 6.24862 26.4768 3.26923 26.0983C5.84472 27.8448 8.84295 28.772 11.9052 28.769C14.0146 28.7844 16.106 28.3578 18.0577 27.5138C20.0093 26.6699 21.7825 25.4255 23.2741 23.8529C24.7658 22.2804 25.9461 20.411 26.7466 18.3534C27.5472 16.2959 27.9519 14.0911 27.9372 11.8672C27.9372 11.6116 27.9372 11.3559 27.9195 11.1003C29.0219 10.2618 29.9739 9.22299 30.7308 8.0325L30.7291 8.02398Z" fill="white"/>
</svg>
